<svg width="42" height="31" viewBox="0 0 42 31" fill="none" xmlns="http://www.w3.org/2000/svg">
<path d="M40.9557 24.0208L38.685 8.06251C38.1017 3.95834 34.5811 0.916672 30.4355 0.916672H11.5615C7.41593 0.916672 3.8953 3.95834 3.312 8.06251L1.04129 24.0208C0.582983 27.2292 3.06201 30.0833 6.29099 30.0833C7.70758 30.0833 9.04084 29.5208 10.0408 28.5208L14.7488 23.8333H27.2481L31.9354 28.5208C32.9353 29.5208 34.2894 30.0833 35.6852 30.0833C38.935 30.0833 41.414 27.2292 40.9557 24.0208ZM18.9153 13.4167H14.7488V17.5833H12.6656V13.4167H8.4992V11.3333H12.6656V7.16667H14.7488V11.3333H18.9153V13.4167ZM27.2481 11.3333C26.1024 11.3333 25.1649 10.3958 25.1649 9.25001C25.1649 8.10417 26.1024 7.16667 27.2481 7.16667C28.3939 7.16667 29.3314 8.10417 29.3314 9.25001C29.3314 10.3958 28.3939 11.3333 27.2481 11.3333ZM31.4146 17.5833C30.2688 17.5833 29.3314 16.6458 29.3314 15.5C29.3314 14.3542 30.2688 13.4167 31.4146 13.4167C32.5603 13.4167 33.4978 14.3542 33.4978 15.5C33.4978 16.6458 32.5603 17.5833 31.4146 17.5833Z" fill="#2A7AE4"/>
</svg>
