<?xml version="1.0" encoding="utf-8"?>
<!-- Generator: Adobe Illustrator 25.2.1, SVG Export Plug-In . SVG Version: 6.00 Build 0)  -->
<svg version="1.1" id="Camada_1" xmlns="http://www.w3.org/2000/svg" xmlns:xlink="http://www.w3.org/1999/xlink" x="0px" y="0px"
	 viewBox="0 0 24 24" style="enable-background:new 0 0 24 24;" xml:space="preserve">
<style type="text/css">
	.st0{fill:#FFFFFF;stroke:#2A7AE4;stroke-width:0.5669;stroke-miterlimit:10;}
</style>
<path class="st0" d="M14.6,2.7c0.1,0,0.2,0,0.3,0.1l0.9,0.9H19c0.2,0,0.4,0.2,0.4,0.4v2c0,0.2-0.2,0.4-0.4,0.4H5
	c-0.2,0-0.4-0.2-0.4-0.4v-2c0-0.2,0.2-0.4,0.4-0.4h3.4l0.9-0.9c0.1-0.1,0.2-0.1,0.3-0.1L14.6,2.7"/>
<path class="st0" d="M18,7.7c0.2,0,0.4,0.2,0.4,0.4v12c0,1.3-1.1,2.4-2.4,2.4H8c-1.3,0-2.4-1.1-2.4-2.4v-12c0-0.2,0.2-0.4,0.4-0.4
	L18,7.7"/>
</svg>
